<svg version="1.1" xmlns="http://www.w3.org/2000/svg" xmlns:xlink="http://www.w3.org/1999/xlink" width="762.26806640625" height="475"><defs/><g><g transform="translate(-30,-46) scale(1,1)"><path fill="#C0C0C0" stroke="none" d="M 249 151 L 354.7041015625 151 Q 364.7041015625 151 364.7041015625 161 L 364.7041015625 180 Q 364.7041015625 190 354.7041015625 190 L 249 190 Q 239 190 239 180 L 239 161 Q 239 151 249 151 Z" opacity="0.2"/></g><g transform="translate(-30,-46) scale(1,1)"><path fill="#ffffff" stroke="none" d="M 242 144 L 347.7041015625 144 Q 357.7041015625 144 357.7041015625 154 L 357.7041015625 173 Q 357.7041015625 183 347.7041015625 183 L 242 183 Q 232 183 232 173 L 232 154 Q 232 144 242 144 Z"/></g><g transform="translate(-30,-46) scale(1,1)"><path fill="none" stroke="#000000" d="M 242 144 L 347.7041015625 144 Q 357.7041015625 144 357.7041015625 154 L 357.7041015625 173 Q 357.7041015625 183 347.7041015625 183 L 242 183 Q 232 183 232 173 L 232 154 Q 232 144 242 144 Z" stroke-miterlimit="10"/></g><g transform="translate(-30,-46) scale(1,1)"><g><path fill="none" stroke="none"/><text fill="#000000" stroke="none" font-family="Arial" font-size="15px" font-style="normal" font-weight="bold" text-decoration="none" x="240.65283203125" y="165.5">Página Principal</text></g></g><g transform="translate(-30,-46) scale(1,1)"><path fill="#C0C0C0" stroke="none" d="M 385 63 L 480.6845703125 63 Q 490.6845703125 63 490.6845703125 73 L 490.6845703125 92 Q 490.6845703125 102 480.6845703125 102 L 385 102 Q 375 102 375 92 L 375 73 Q 375 63 385 63 Z" opacity="0.2"/></g><g transform="translate(-30,-46) scale(1,1)"><path fill="#ffffff" stroke="none" d="M 378 56 L 473.6845703125 56 Q 483.6845703125 56 483.6845703125 66 L 483.6845703125 85 Q 483.6845703125 95 473.6845703125 95 L 378 95 Q 368 95 368 85 L 368 66 Q 368 56 378 56 Z"/></g><g transform="translate(-30,-46) scale(1,1)"><path fill="none" stroke="#000000" d="M 378 56 L 473.6845703125 56 Q 483.6845703125 56 483.6845703125 66 L 483.6845703125 85 Q 483.6845703125 95 473.6845703125 95 L 378 95 Q 368 95 368 85 L 368 66 Q 368 56 378 56 Z" stroke-miterlimit="10"/></g><g transform="translate(-30,-46) scale(1,1)"><g><path fill="none" stroke="none"/><text fill="#000000" stroke="none" font-family="Arial" font-size="15px" font-style="normal" font-weight="bold" text-decoration="none" x="375.80322265625" y="77.5">Página de post</text></g></g><g transform="translate(-30,-46) scale(1,1)"><path fill="none" stroke="#000000" d="M 324 143 L 394 96" stroke-miterlimit="10"/></g><g transform="translate(-30,-46) scale(1,1)"><path fill="none" stroke="#000000" d="M 387.90926169853293 105.15985299789479 L 394 96 L 383.2162034751167 98.17019181408334" stroke-miterlimit="10"/></g><g transform="translate(-30,-46) scale(1,1)"><path fill="#C0C0C0" stroke="none" d="M 401 151 L 461.68212890625 151 Q 471.68212890625 151 471.68212890625 161 L 471.68212890625 180 Q 471.68212890625 190 461.68212890625 190 L 401 190 Q 391 190 391 180 L 391 161 Q 391 151 401 151 Z" opacity="0.2"/></g><g transform="translate(-30,-46) scale(1,1)"><path fill="#ffffff" stroke="none" d="M 394 144 L 454.68212890625 144 Q 464.68212890625 144 464.68212890625 154 L 464.68212890625 173 Q 464.68212890625 183 454.68212890625 183 L 394 183 Q 384 183 384 173 L 384 154 Q 384 144 394 144 Z"/></g><g transform="translate(-30,-46) scale(1,1)"><path fill="none" stroke="#000000" d="M 394 144 L 454.68212890625 144 Q 464.68212890625 144 464.68212890625 154 L 464.68212890625 173 Q 464.68212890625 183 454.68212890625 183 L 394 183 Q 384 183 384 173 L 384 154 Q 384 144 394 144 Z" stroke-miterlimit="10"/></g><g transform="translate(-30,-46) scale(1,1)"><g><path fill="none" stroke="none"/><text fill="#000000" stroke="none" font-family="Arial" font-size="15px" font-style="normal" font-weight="bold" text-decoration="none" x="391.40771484375" y="165.5">Lista Post</text></g></g><g transform="translate(-30,-46) scale(1,1)"><path fill="none" stroke="#000000" d="M 359 163 L 383 163" stroke-miterlimit="10"/></g><g transform="translate(-30,-46) scale(1,1)"><path fill="none" stroke="#000000" d="M 372.83732514237585 167.209517756016 L 383 163 L 372.83732514237585 158.790482243984" stroke-miterlimit="10"/></g><g transform="translate(-30,-46) scale(1,1)"><path fill="#C0C0C0" stroke="none" d="M 265 63 L 336.529296875 63 Q 346.529296875 63 346.529296875 73 L 346.529296875 92 Q 346.529296875 102 336.529296875 102 L 265 102 Q 255 102 255 92 L 255 73 Q 255 63 265 63 Z" opacity="0.2"/></g><g transform="translate(-30,-46) scale(1,1)"><path fill="#ffffff" stroke="none" d="M 258 56 L 329.529296875 56 Q 339.529296875 56 339.529296875 66 L 339.529296875 85 Q 339.529296875 95 329.529296875 95 L 258 95 Q 248 95 248 85 L 248 66 Q 248 56 258 56 Z"/></g><g transform="translate(-30,-46) scale(1,1)"><path fill="none" stroke="#000000" d="M 258 56 L 329.529296875 56 Q 339.529296875 56 339.529296875 66 L 339.529296875 85 Q 339.529296875 95 329.529296875 95 L 258 95 Q 248 95 248 85 L 248 66 Q 248 56 258 56 Z" stroke-miterlimit="10"/></g><g transform="translate(-30,-46) scale(1,1)"><g><path fill="none" stroke="none"/><text fill="#000000" stroke="none" font-family="Arial" font-size="15px" font-style="normal" font-weight="bold" text-decoration="none" x="255.411376953125" y="77.5">Ver usuario</text></g></g><g transform="translate(-30,-46) scale(1,1)"><path fill="none" stroke="#000000" d="M 294 143 L 293 96" stroke-miterlimit="10"/></g><g transform="translate(-30,-46) scale(1,1)"><path fill="none" stroke="#000000" d="M 297.4247434676047 106.07083140787738 L 293 96 L 289.0076129302576 106.24991929165073" stroke-miterlimit="10"/></g><g transform="translate(-30,-46) scale(1,1)"><path fill="none" stroke="#000000" d="M 424 143 L 425 96" stroke-miterlimit="10"/></g><g transform="translate(-30,-46) scale(1,1)"><path fill="none" stroke="#000000" d="M 428.9923870697424 106.24991929165073 L 425 96 L 420.5752565323953 106.07083140787738" stroke-miterlimit="10"/></g><g transform="translate(-30,-46) scale(1,1)"><path fill="none" stroke="#000000" d="M 341 75 L 367 75" stroke-miterlimit="10"/></g><g transform="translate(-30,-46) scale(1,1)"><path fill="none" stroke="#000000" d="M 356.83732514237585 79.20951775601598 L 367 75 L 356.83732514237585 70.79048224398402" stroke-miterlimit="10"/></g><g transform="translate(-30,-46) scale(1,1)"><path fill="#C0C0C0" stroke="none" d="M 258 215 L 321 215 Q 324 215 324 218 L 324 217 Q 324 220 321 220 L 258 220 Q 255 220 255 217 L 255 218 Q 255 215 258 215 Z" opacity="0.2"/></g><g transform="translate(-30,-46) scale(1,1)"><path fill="#000000" stroke="none" d="M 251 208 L 314 208 Q 317 208 317 211 L 317 211 Q 317 214 314 214 L 251 214 Q 248 214 248 211 L 248 211 Q 248 208 251 208 Z"/></g><g transform="translate(-30,-46) scale(1,1)"><path fill="#C0C0C0" stroke="none" d="M 266 287 L 329 287 Q 332 287 332 290 L 332 289 Q 332 292 329 292 L 266 292 Q 263 292 263 289 L 263 290 Q 263 287 266 287 Z" opacity="0.2"/></g><g transform="translate(-30,-46) scale(1,1)"><path fill="#000000" stroke="none" d="M 259 280 L 322 280 Q 325 280 325 283 L 325 283 Q 325 286 322 286 L 259 286 Q 256 286 256 283 L 256 283 Q 256 280 259 280 Z"/></g><g transform="translate(-30,-46) scale(1,1)"><path fill="none" stroke="#000000" d="M 289 184 L 283 207" stroke-miterlimit="10"/></g><g transform="translate(-30,-46) scale(1,1)"><path fill="none" stroke="#000000" d="M 281.4920795784674 196.1038458159622 L 283 207 L 289.63848375683193 198.2289947320573" stroke-miterlimit="10"/></g><g transform="translate(-30,-46) scale(1,1)"><path fill="#C0C0C0" stroke="none" d="M 201 231 L 240 231 Q 250 231 250 241 L 250 260 Q 250 270 240 270 L 201 270 Q 191 270 191 260 L 191 241 Q 191 231 201 231 Z" opacity="0.2"/></g><g transform="translate(-30,-46) scale(1,1)"><path fill="#ffffff" stroke="none" d="M 194 224 L 233 224 Q 243 224 243 234 L 243 253 Q 243 263 233 263 L 194 263 Q 184 263 184 253 L 184 234 Q 184 224 194 224 Z"/></g><g transform="translate(-30,-46) scale(1,1)"><path fill="none" stroke="#000000" d="M 194 224 L 233 224 Q 243 224 243 234 L 243 253 Q 243 263 233 263 L 194 263 Q 184 263 184 253 L 184 234 Q 184 224 194 224 Z" stroke-miterlimit="10"/></g><g transform="translate(-30,-46) scale(1,1)"><g><path fill="none" stroke="none"/><text fill="#000000" stroke="none" font-family="Arial" font-size="15px" font-style="normal" font-weight="bold" text-decoration="none" x="195.149169921875" y="245.5">Login</text></g></g><g transform="translate(-30,-46) scale(1,1)"><path fill="#C0C0C0" stroke="none" d="M 337 231 L 386.84228515625 231 Q 396.84228515625 231 396.84228515625 241 L 396.84228515625 260 Q 396.84228515625 270 386.84228515625 270 L 337 270 Q 327 270 327 260 L 327 241 Q 327 231 337 231 Z" opacity="0.2"/></g><g transform="translate(-30,-46) scale(1,1)"><path fill="#ffffff" stroke="none" d="M 330 224 L 379.84228515625 224 Q 389.84228515625 224 389.84228515625 234 L 389.84228515625 253 Q 389.84228515625 263 379.84228515625 263 L 330 263 Q 320 263 320 253 L 320 234 Q 320 224 330 224 Z"/></g><g transform="translate(-30,-46) scale(1,1)"><path fill="none" stroke="#000000" d="M 330 224 L 379.84228515625 224 Q 389.84228515625 224 389.84228515625 234 L 389.84228515625 253 Q 389.84228515625 263 379.84228515625 263 L 330 263 Q 320 263 320 253 L 320 234 Q 320 224 330 224 Z" stroke-miterlimit="10"/></g><g transform="translate(-30,-46) scale(1,1)"><g><path fill="none" stroke="none"/><text fill="#000000" stroke="none" font-family="Arial" font-size="15px" font-style="normal" font-weight="bold" text-decoration="none" x="326.993896484375" y="245.5">Registro</text></g></g><g transform="translate(-30,-46) scale(1,1)"><path fill="none" stroke="#000000" d="M 274 214 L 244 228" stroke-miterlimit="10"/></g><g transform="translate(-30,-46) scale(1,1)"><path fill="none" stroke="#000000" d="M 251.42910073816034 219.8877584958123 L 244 228 L 254.98938848830525 227.51694653183708" stroke-miterlimit="10"/></g><g transform="translate(-30,-46) scale(1,1)"><path fill="none" stroke="#000000" d="M 291 214 L 319 227" stroke-miterlimit="10"/></g><g transform="translate(-30,-46) scale(1,1)"><path fill="none" stroke="#000000" d="M 308.00968724604354 226.53845306823504 L 319 227 L 311.5550382896032 218.90231235902954" stroke-miterlimit="10"/></g><g transform="translate(-30,-46) scale(1,1)"><path fill="none" stroke="#000000" d="M 320 264 L 295 279" stroke-miterlimit="10"/></g><g transform="translate(-30,-46) scale(1,1)"><path fill="none" stroke="#000000" d="M 301.5486427788624 270.1617152255173 L 295 279 L 305.8802008145965 277.38097861840737" stroke-miterlimit="10"/></g><g transform="translate(-30,-46) scale(1,1)"><path fill="none" stroke="#000000" d="M 244 259 L 284 279" stroke-miterlimit="10"/></g><g transform="translate(-30,-46) scale(1,1)"><path fill="none" stroke="#000000" d="M 273.02767370306094 278.22022077900255 L 284 279 L 276.7927808450386 270.6900064950472" stroke-miterlimit="10"/></g><g transform="translate(-30,-46) scale(1,1)"><path fill="#C0C0C0" stroke="none" d="M 257 327 L 343.529296875 327 Q 353.529296875 327 353.529296875 337 L 353.529296875 356 Q 353.529296875 366 343.529296875 366 L 257 366 Q 247 366 247 356 L 247 337 Q 247 327 257 327 Z" opacity="0.2"/></g><g transform="translate(-30,-46) scale(1,1)"><path fill="#ffffff" stroke="none" d="M 250 320 L 336.529296875 320 Q 346.529296875 320 346.529296875 330 L 346.529296875 349 Q 346.529296875 359 336.529296875 359 L 250 359 Q 240 359 240 349 L 240 330 Q 240 320 250 320 Z"/></g><g transform="translate(-30,-46) scale(1,1)"><path fill="none" stroke="#000000" d="M 250 320 L 336.529296875 320 Q 346.529296875 320 346.529296875 330 L 346.529296875 349 Q 346.529296875 359 336.529296875 359 L 250 359 Q 240 359 240 349 L 240 330 Q 240 320 250 320 Z" stroke-miterlimit="10"/></g><g transform="translate(-30,-46) scale(1,1)"><g><path fill="none" stroke="none"/><text fill="#000000" stroke="none" font-family="Arial" font-size="15px" font-style="normal" font-weight="bold" text-decoration="none" x="248.25" y="341.5">Perfil Usuario</text></g></g><g transform="translate(-30,-46) scale(1,1)"><path fill="none" stroke="#000000" d="M 290 286 L 292 319" stroke-miterlimit="10"/></g><g transform="translate(-30,-46) scale(1,1)"><path fill="none" stroke="#000000" d="M 287.18340036057845 309.1105931465267 L 292 319 L 295.58701638070806 308.6012830847007" stroke-miterlimit="10"/></g><g transform="translate(-30,-46) scale(1,1)"><path fill="#C0C0C0" stroke="none" d="M 537 263 L 700.83984375 263 Q 710.83984375 263 710.83984375 273 L 710.83984375 292 Q 710.83984375 302 700.83984375 302 L 537 302 Q 527 302 527 292 L 527 273 Q 527 263 537 263 Z" opacity="0.2"/></g><g transform="translate(-30,-46) scale(1,1)"><path fill="#ffffff" stroke="none" d="M 530 256 L 693.83984375 256 Q 703.83984375 256 703.83984375 266 L 703.83984375 285 Q 703.83984375 295 693.83984375 295 L 530 295 Q 520 295 520 285 L 520 266 Q 520 256 530 256 Z"/></g><g transform="translate(-30,-46) scale(1,1)"><path fill="none" stroke="#000000" d="M 530 256 L 693.83984375 256 Q 703.83984375 256 703.83984375 266 L 703.83984375 285 Q 703.83984375 295 693.83984375 295 L 530 295 Q 520 295 520 285 L 520 266 Q 520 256 530 256 Z" stroke-miterlimit="10"/></g><g transform="translate(-30,-46) scale(1,1)"><g><path fill="none" stroke="none"/><text fill="#000000" stroke="none" font-family="Arial" font-size="13px" font-style="normal" font-weight="bold" text-decoration="none" x="530.9873046875" y="275.5">Página Principal ver.usuario</text></g></g><g transform="translate(-30,-46) scale(1,1)"><path fill="none" stroke="#000000" d="M 348 328 L 519 294" stroke-miterlimit="10"/></g><g transform="translate(-30,-46) scale(1,1)"><path fill="none" stroke="#000000" d="M 509.8533524808721 300.1105514612702 L 519 294 L 508.211531139048 291.85315588915506" stroke-miterlimit="10"/></g><g transform="translate(-30,-46) scale(1,1)"><path fill="#C0C0C0" stroke="none" d="M 577 327 L 732.88623046875 327 Q 742.88623046875 327 742.88623046875 337 L 742.88623046875 356 Q 742.88623046875 366 732.88623046875 366 L 577 366 Q 567 366 567 356 L 567 337 Q 567 327 577 327 Z" opacity="0.2"/></g><g transform="translate(-30,-46) scale(1,1)"><path fill="#ffffff" stroke="none" d="M 570 320 L 725.88623046875 320 Q 735.88623046875 320 735.88623046875 330 L 735.88623046875 349 Q 735.88623046875 359 725.88623046875 359 L 570 359 Q 560 359 560 349 L 560 330 Q 560 320 570 320 Z"/></g><g transform="translate(-30,-46) scale(1,1)"><path fill="none" stroke="#000000" d="M 570 320 L 725.88623046875 320 Q 735.88623046875 320 735.88623046875 330 L 735.88623046875 349 Q 735.88623046875 359 725.88623046875 359 L 570 359 Q 560 359 560 349 L 560 330 Q 560 320 570 320 Z" stroke-miterlimit="10"/></g><g transform="translate(-30,-46) scale(1,1)"><g><path fill="none" stroke="none"/><text fill="#000000" stroke="none" font-family="Arial" font-size="13px" font-style="normal" font-weight="bold" text-decoration="none" x="569.8955078125" y="339.5">Página de Post ver.usuario</text></g></g><g transform="translate(-30,-46) scale(1,1)"><path fill="none" stroke="#000000" d="M 623 296 L 636 319" stroke-miterlimit="10"/></g><g transform="translate(-30,-46) scale(1,1)"><path fill="none" stroke="#000000" d="M 627.3347323618295 312.22407668587704 L 636 319 L 634.6640318164697 308.08142916803695" stroke-miterlimit="10"/></g><g transform="translate(-30,-46) scale(1,1)"><path fill="#C0C0C0" stroke="none" d="M 473 327 L 524.12451171875 327 Q 534.12451171875 327 534.12451171875 337 L 534.12451171875 356 Q 534.12451171875 366 524.12451171875 366 L 473 366 Q 463 366 463 356 L 463 337 Q 463 327 473 327 Z" opacity="0.2"/></g><g transform="translate(-30,-46) scale(1,1)"><path fill="#ffffff" stroke="none" d="M 466 320 L 517.12451171875 320 Q 527.12451171875 320 527.12451171875 330 L 527.12451171875 349 Q 527.12451171875 359 517.12451171875 359 L 466 359 Q 456 359 456 349 L 456 330 Q 456 320 466 320 Z"/></g><g transform="translate(-30,-46) scale(1,1)"><path fill="none" stroke="#000000" d="M 466 320 L 517.12451171875 320 Q 527.12451171875 320 527.12451171875 330 L 527.12451171875 349 Q 527.12451171875 359 517.12451171875 359 L 466 359 Q 456 359 456 349 L 456 330 Q 456 320 466 320 Z" stroke-miterlimit="10"/></g><g transform="translate(-30,-46) scale(1,1)"><g><path fill="none" stroke="none"/><text fill="#000000" stroke="none" font-family="Arial" font-size="13px" font-style="normal" font-weight="bold" text-decoration="none" x="463.02001953125" y="339.5">Lista Post</text></g></g><g transform="translate(-30,-46) scale(1,1)"><path fill="none" stroke="#000000" d="M 348 339 L 455 339" stroke-miterlimit="10"/></g><g transform="translate(-30,-46) scale(1,1)"><path fill="none" stroke="#000000" d="M 444.83732514237585 343.209517756016 L 455 339 L 444.83732514237585 334.790482243984" stroke-miterlimit="10"/></g><g transform="translate(-30,-46) scale(1,1)"><path fill="none" stroke="#000000" d="M 528 339 L 559 339" stroke-miterlimit="10"/></g><g transform="translate(-30,-46) scale(1,1)"><path fill="none" stroke="#000000" d="M 548.8373251423759 343.209517756016 L 559 339 L 548.8373251423758 334.790482243984" stroke-miterlimit="10"/></g><g transform="translate(-30,-46) scale(1,1)"><path fill="none" stroke="#000000" d="M 572 296 L 528 319" stroke-miterlimit="10"/></g><g transform="translate(-30,-46) scale(1,1)"><path fill="none" stroke="#000000" d="M 535.0563442177564 310.56151635182385 L 528 319 L 538.9564978573192 318.0226798362049" stroke-miterlimit="10"/></g><g transform="translate(-30,-46) scale(1,1)"><path fill="#C0C0C0" stroke="none" d="M 145 327 L 206.96630859375 327 Q 216.96630859375 327 216.96630859375 337 L 216.96630859375 356 Q 216.96630859375 366 206.96630859375 366 L 145 366 Q 135 366 135 356 L 135 337 Q 135 327 145 327 Z" opacity="0.2"/></g><g transform="translate(-30,-46) scale(1,1)"><path fill="#ffffff" stroke="none" d="M 138 320 L 199.96630859375 320 Q 209.96630859375 320 209.96630859375 330 L 209.96630859375 349 Q 209.96630859375 359 199.96630859375 359 L 138 359 Q 128 359 128 349 L 128 330 Q 128 320 138 320 Z"/></g><g transform="translate(-30,-46) scale(1,1)"><path fill="none" stroke="#000000" d="M 138 320 L 199.96630859375 320 Q 209.96630859375 320 209.96630859375 330 L 209.96630859375 349 Q 209.96630859375 359 199.96630859375 359 L 138 359 Q 128 359 128 349 L 128 330 Q 128 320 138 320 Z" stroke-miterlimit="10"/></g><g transform="translate(-30,-46) scale(1,1)"><g><path fill="none" stroke="none"/><text fill="#000000" stroke="none" font-family="Arial" font-size="13px" font-style="normal" font-weight="bold" text-decoration="none" x="135.38818359375" y="339.5">Editar Perfil</text></g></g><g transform="translate(-30,-46) scale(1,1)"><path fill="none" stroke="#000000" d="M 239 339 L 211 339" stroke-miterlimit="10"/></g><g transform="translate(-30,-46) scale(1,1)"><path fill="none" stroke="#000000" d="M 221.16267485762415 334.790482243984 L 211 339 L 221.16267485762415 343.209517756016" stroke-miterlimit="10"/></g><g transform="translate(-30,-46) scale(1,1)"><path fill="#C0C0C0" stroke="none" d="M 81 399 L 158.8544921875 399 Q 168.8544921875 399 168.8544921875 409 L 168.8544921875 428 Q 168.8544921875 438 158.8544921875 438 L 81 438 Q 71 438 71 428 L 71 409 Q 71 399 81 399 Z" opacity="0.2"/></g><g transform="translate(-30,-46) scale(1,1)"><path fill="#ffffff" stroke="none" d="M 74 392 L 151.8544921875 392 Q 161.8544921875 392 161.8544921875 402 L 161.8544921875 421 Q 161.8544921875 431 151.8544921875 431 L 74 431 Q 64 431 64 421 L 64 402 Q 64 392 74 392 Z"/></g><g transform="translate(-30,-46) scale(1,1)"><path fill="none" stroke="#000000" d="M 74 392 L 151.8544921875 392 Q 161.8544921875 392 161.8544921875 402 L 161.8544921875 421 Q 161.8544921875 431 151.8544921875 431 L 74 431 Q 64 431 64 421 L 64 402 Q 64 392 74 392 Z" stroke-miterlimit="10"/></g><g transform="translate(-30,-46) scale(1,1)"><g><path fill="none" stroke="none"/><text fill="#000000" stroke="none" font-family="Arial" font-size="13px" font-style="normal" font-weight="bold" text-decoration="none" x="71.013671875" y="411.5">Página Correo</text></g></g><g transform="translate(-30,-46) scale(1,1)"><path fill="none" stroke="#000000" d="M 240 360 L 162 391" stroke-miterlimit="10"/></g><g transform="translate(-30,-46) scale(1,1)"><path fill="none" stroke="#000000" d="M 169.88940902845894 383.3346738372284 L 162 391 L 172.99885873328014 391.15845051387527" stroke-miterlimit="10"/></g><g transform="translate(-30,-46) scale(1,1)"><path fill="#C0C0C0" stroke="none" d="M 57 463 L 178.208984375 463 Q 188.208984375 463 188.208984375 473 L 188.208984375 492 Q 188.208984375 502 178.208984375 502 L 57 502 Q 47 502 47 492 L 47 473 Q 47 463 57 463 Z" opacity="0.2"/></g><g transform="translate(-30,-46) scale(1,1)"><path fill="#ffffff" stroke="none" d="M 50 456 L 171.208984375 456 Q 181.208984375 456 181.208984375 466 L 181.208984375 485 Q 181.208984375 495 171.208984375 495 L 50 495 Q 40 495 40 485 L 40 466 Q 40 456 50 456 Z"/></g><g transform="translate(-30,-46) scale(1,1)"><path fill="none" stroke="#000000" d="M 50 456 L 171.208984375 456 Q 181.208984375 456 181.208984375 466 L 181.208984375 485 Q 181.208984375 495 171.208984375 495 L 50 495 Q 40 495 40 485 L 40 466 Q 40 456 50 456 Z" stroke-miterlimit="10"/></g><g transform="translate(-30,-46) scale(1,1)"><g><path fill="none" stroke="none"/><text fill="#000000" stroke="none" font-family="Arial" font-size="13px" font-style="normal" font-weight="bold" text-decoration="none" x="48.81640625" y="475.5">Página Conversación</text></g></g><g transform="translate(-30,-46) scale(1,1)"><path fill="none" stroke="#000000" d="M 111 432 L 111 455" stroke-miterlimit="10"/></g><g transform="translate(-30,-46) scale(1,1)"><path fill="none" stroke="#000000" d="M 106.79048224398402 444.83732514237585 L 111 455 L 115.20951775601598 444.83732514237585" stroke-miterlimit="10"/></g><g transform="translate(-30,-46) scale(1,1)"><path fill="#C0C0C0" stroke="none" d="M 217 399 L 276.79541015625 399 Q 286.79541015625 399 286.79541015625 409 L 286.79541015625 428 Q 286.79541015625 438 276.79541015625 438 L 217 438 Q 207 438 207 428 L 207 409 Q 207 399 217 399 Z" opacity="0.2"/></g><g transform="translate(-30,-46) scale(1,1)"><path fill="#ffffff" stroke="none" d="M 210 392 L 269.79541015625 392 Q 279.79541015625 392 279.79541015625 402 L 279.79541015625 421 Q 279.79541015625 431 269.79541015625 431 L 210 431 Q 200 431 200 421 L 200 402 Q 200 392 210 392 Z"/></g><g transform="translate(-30,-46) scale(1,1)"><path fill="none" stroke="#000000" d="M 210 392 L 269.79541015625 392 Q 279.79541015625 392 279.79541015625 402 L 279.79541015625 421 Q 279.79541015625 431 269.79541015625 431 L 210 431 Q 200 431 200 421 L 200 402 Q 200 392 210 392 Z" stroke-miterlimit="10"/></g><g transform="translate(-30,-46) scale(1,1)"><g><path fill="none" stroke="none"/><text fill="#000000" stroke="none" font-family="Arial" font-size="13px" font-style="normal" font-weight="bold" text-decoration="none" x="207.013671875" y="411.5">Seguidores</text></g></g><g transform="translate(-30,-46) scale(1,1)"><path fill="#C0C0C0" stroke="none" d="M 313 399 L 364.8291015625 399 Q 374.8291015625 399 374.8291015625 409 L 374.8291015625 428 Q 374.8291015625 438 364.8291015625 438 L 313 438 Q 303 438 303 428 L 303 409 Q 303 399 313 399 Z" opacity="0.2"/></g><g transform="translate(-30,-46) scale(1,1)"><path fill="#ffffff" stroke="none" d="M 306 392 L 357.8291015625 392 Q 367.8291015625 392 367.8291015625 402 L 367.8291015625 421 Q 367.8291015625 431 357.8291015625 431 L 306 431 Q 296 431 296 421 L 296 402 Q 296 392 306 392 Z"/></g><g transform="translate(-30,-46) scale(1,1)"><path fill="none" stroke="#000000" d="M 306 392 L 357.8291015625 392 Q 367.8291015625 392 367.8291015625 402 L 367.8291015625 421 Q 367.8291015625 431 357.8291015625 431 L 306 431 Q 296 431 296 421 L 296 402 Q 296 392 306 392 Z" stroke-miterlimit="10"/></g><g transform="translate(-30,-46) scale(1,1)"><g><path fill="none" stroke="none"/><text fill="#000000" stroke="none" font-family="Arial" font-size="13px" font-style="normal" font-weight="bold" text-decoration="none" x="303.0009765625" y="411.5">Siguiendo</text></g></g><g transform="translate(-30,-46) scale(1,1)"><path fill="none" stroke="#000000" d="M 277 360 L 254 391" stroke-miterlimit="10"/></g><g transform="translate(-30,-46) scale(1,1)"><path fill="none" stroke="#000000" d="M 256.6747431456188 380.3301476530851 L 254 391 L 263.43605396496196 385.34660406743654" stroke-miterlimit="10"/></g><g transform="translate(-30,-46) scale(1,1)"><path fill="none" stroke="#000000" d="M 304 360 L 320 391" stroke-miterlimit="10"/></g><g transform="translate(-30,-46) scale(1,1)"><path fill="none" stroke="#000000" d="M 311.5982966963885 383.899902705027 L 320 391 L 319.0796255648586 380.0385716761392" stroke-miterlimit="10"/></g><g transform="translate(-30,-46) scale(1,1)"><path fill="#C0C0C0" stroke="none" d="M 265 463 L 326.97265625 463 Q 336.97265625 463 336.97265625 473 L 336.97265625 492 Q 336.97265625 502 326.97265625 502 L 265 502 Q 255 502 255 492 L 255 473 Q 255 463 265 463 Z" opacity="0.2"/></g><g transform="translate(-30,-46) scale(1,1)"><path fill="#ffffff" stroke="none" d="M 258 456 L 319.97265625 456 Q 329.97265625 456 329.97265625 466 L 329.97265625 485 Q 329.97265625 495 319.97265625 495 L 258 495 Q 248 495 248 485 L 248 466 Q 248 456 258 456 Z"/></g><g transform="translate(-30,-46) scale(1,1)"><path fill="none" stroke="#000000" d="M 258 456 L 319.97265625 456 Q 329.97265625 456 329.97265625 466 L 329.97265625 485 Q 329.97265625 495 319.97265625 495 L 258 495 Q 248 495 248 485 L 248 466 Q 248 456 258 456 Z" stroke-miterlimit="10"/></g><g transform="translate(-30,-46) scale(1,1)"><g><path fill="none" stroke="none"/><text fill="#000000" stroke="none" font-family="Arial" font-size="13px" font-style="normal" font-weight="bold" text-decoration="none" x="254.667724609375" y="475.5">Ver Usuario</text></g></g><g transform="translate(-30,-46) scale(1,1)"><path fill="none" stroke="#000000" d="M 255 432 L 273 455" stroke-miterlimit="10"/></g><g transform="translate(-30,-46) scale(1,1)"><path fill="none" stroke="#000000" d="M 263.4216432400082 449.5912032966361 L 273 455 L 270.0516758093939 444.40248215537775" stroke-miterlimit="10"/></g><g transform="translate(-30,-46) scale(1,1)"><path fill="none" stroke="#000000" d="M 317 432 L 301 455" stroke-miterlimit="10"/></g><g transform="translate(-30,-46) scale(1,1)"><path fill="none" stroke="#000000" d="M 303.347927693376 444.25350124241953 L 301 455 L 310.2591577392198 449.0613134482239" stroke-miterlimit="10"/></g><g transform="translate(-30,-46) scale(1,1)"><path fill="#C0C0C0" stroke="none" d="M 601 383 L 779.26806640625 383 Q 789.26806640625 383 789.26806640625 393 L 789.26806640625 412 Q 789.26806640625 422 779.26806640625 422 L 601 422 Q 591 422 591 412 L 591 393 Q 591 383 601 383 Z" opacity="0.2"/></g><g transform="translate(-30,-46) scale(1,1)"><path fill="#ffffff" stroke="none" d="M 594 376 L 772.26806640625 376 Q 782.26806640625 376 782.26806640625 386 L 782.26806640625 405 Q 782.26806640625 415 772.26806640625 415 L 594 415 Q 584 415 584 405 L 584 386 Q 584 376 594 376 Z"/></g><g transform="translate(-30,-46) scale(1,1)"><path fill="none" stroke="#000000" d="M 594 376 L 772.26806640625 376 Q 782.26806640625 376 782.26806640625 386 L 782.26806640625 405 Q 782.26806640625 415 772.26806640625 415 L 594 415 Q 584 415 584 405 L 584 386 Q 584 376 594 376 Z" stroke-miterlimit="10"/></g><g transform="translate(-30,-46) scale(1,1)"><g><path fill="none" stroke="none"/><text fill="#000000" stroke="none" font-family="Arial" font-size="13px" font-style="normal" font-weight="bold" text-decoration="none" x="606.536865234375" y="395.5">Comentarios Denunciados</text></g></g><g transform="translate(-30,-46) scale(1,1)"><path fill="#C0C0C0" stroke="none" d="M 601 431 L 727.97900390625 431 Q 737.97900390625 431 737.97900390625 441 L 737.97900390625 460 Q 737.97900390625 470 727.97900390625 470 L 601 470 Q 591 470 591 460 L 591 441 Q 591 431 601 431 Z" opacity="0.2"/></g><g transform="translate(-30,-46) scale(1,1)"><path fill="#ffffff" stroke="none" d="M 594 424 L 720.97900390625 424 Q 730.97900390625 424 730.97900390625 434 L 730.97900390625 453 Q 730.97900390625 463 720.97900390625 463 L 594 463 Q 584 463 584 453 L 584 434 Q 584 424 594 424 Z"/></g><g transform="translate(-30,-46) scale(1,1)"><path fill="none" stroke="#000000" d="M 594 424 L 720.97900390625 424 Q 730.97900390625 424 730.97900390625 434 L 730.97900390625 453 Q 730.97900390625 463 720.97900390625 463 L 594 463 Q 584 463 584 453 L 584 434 Q 584 424 594 424 Z" stroke-miterlimit="10"/></g><g transform="translate(-30,-46) scale(1,1)"><g><path fill="none" stroke="none"/><text fill="#000000" stroke="none" font-family="Arial" font-size="13px" font-style="normal" font-weight="bold" text-decoration="none" x="604.734130859375" y="443.5">Post Denunciados</text></g></g><g transform="translate(-30,-46) scale(1,1)"><path fill="#C0C0C0" stroke="none" d="M 601 479 L 755.43896484375 479 Q 765.43896484375 479 765.43896484375 489 L 765.43896484375 508 Q 765.43896484375 518 755.43896484375 518 L 601 518 Q 591 518 591 508 L 591 489 Q 591 479 601 479 Z" opacity="0.2"/></g><g transform="translate(-30,-46) scale(1,1)"><path fill="#ffffff" stroke="none" d="M 594 472 L 748.43896484375 472 Q 758.43896484375 472 758.43896484375 482 L 758.43896484375 501 Q 758.43896484375 511 748.43896484375 511 L 594 511 Q 584 511 584 501 L 584 482 Q 584 472 594 472 Z"/></g><g transform="translate(-30,-46) scale(1,1)"><path fill="none" stroke="#000000" d="M 594 472 L 748.43896484375 472 Q 758.43896484375 472 758.43896484375 482 L 758.43896484375 501 Q 758.43896484375 511 748.43896484375 511 L 594 511 Q 584 511 584 501 L 584 482 Q 584 472 594 472 Z" stroke-miterlimit="10"/></g><g transform="translate(-30,-46) scale(1,1)"><g><path fill="none" stroke="none"/><text fill="#000000" stroke="none" font-family="Arial" font-size="13px" font-style="normal" font-weight="bold" text-decoration="none" x="605.82275390625" y="491.5">Usuarios Denunciados</text></g></g><g transform="translate(-30,-46) scale(1,1)"><path fill="#C0C0C0" stroke="none" d="M 498 407 L 497 407 Q 500 407 500 410 L 500 484 Q 500 487 497 487 L 498 487 Q 495 487 495 484 L 495 410 Q 495 407 498 407 Z" opacity="0.2"/></g><g transform="translate(-30,-46) scale(1,1)"><path fill="#000000" stroke="none" d="M 491 400 L 491 400 Q 494 400 494 403 L 494 477 Q 494 480 491 480 L 491 480 Q 488 480 488 477 L 488 403 Q 488 400 491 400 Z"/></g><g transform="translate(-30,-46) scale(1,1)"><path fill="none" stroke="#000000" d="M 334 360 L 487 438" stroke-miterlimit="10"/></g><g transform="translate(-30,-46) scale(1,1)"><path fill="none" stroke="#000000" d="M 476.0341003758172 437.1345258915784 L 487 438 L 479.8579206249356 429.63395540292305" stroke-miterlimit="10"/></g><g transform="translate(-30,-46) scale(1,1)"><g><path fill="none" stroke="none"/><text fill="#000000" stroke="none" font-family="Arial" font-size="13px" font-style="normal" font-weight="normal" text-decoration="none" x="344.5" y="378.5">«Privilegios Administrador»</text></g></g><g transform="translate(-30,-46) scale(1,1)"><path fill="none" stroke="#000000" d="M 494 439 L 593 416" stroke-miterlimit="10"/></g><g transform="translate(-30,-46) scale(1,1)"><path fill="none" stroke="#000000" d="M 584.0535591045084 422.4000933824027 L 593 416 L 582.1483615443891 414.1994604062373" stroke-miterlimit="10"/></g><g transform="translate(-30,-46) scale(1,1)"><path fill="none" stroke="#000000" d="M 494 441 L 600 471" stroke-miterlimit="10"/></g><g transform="translate(-30,-46) scale(1,1)"><path fill="none" stroke="#000000" d="M 589.0750665551024 472.28289875849833 L 600 471 L 591.3677590653912 464.18205188881115" stroke-miterlimit="10"/></g><g transform="translate(-30,-46) scale(1,1)"><path fill="none" stroke="#000000" d="M 494 440 L 583 442" stroke-miterlimit="10"/></g><g transform="translate(-30,-46) scale(1,1)"><path fill="none" stroke="#000000" d="M 572.7453181501455 445.9801382084375 L 583 442 L 572.9344622078114 437.5632276423031" stroke-miterlimit="10"/></g><g transform="translate(-30,-46) scale(1,1)"><path fill="#C0C0C0" stroke="none" d="M 95 168.5 C 95 163.2532944 99.2532944 159 104.5 159 C 109.7467056 159 114 163.2532944 114 168.5 C 114 173.7467056 109.7467056 178 104.5 178 C 99.2532944 178 95 173.7467056 95 168.5 Z" opacity="0.2"/></g><g transform="translate(-30,-46) scale(1,1)"><path fill="#000000" stroke="none" d="M 88 161.5 C 88 156.2532944 92.2532944 152 97.5 152 C 102.7467056 152 107 156.2532944 107 161.5 C 107 166.7467056 102.7467056 171 97.5 171 C 92.2532944 171 88 166.7467056 88 161.5 Z"/></g><g transform="translate(-30,-46) scale(1,1)"><path fill="none" stroke="#000000" d="M 108 161 L 231 162" stroke-miterlimit="10"/></g><g transform="translate(-30,-46) scale(1,1)"><path fill="none" stroke="#000000" d="M 220.80343840250967 166.1267579997603 L 231 162 L 220.87188358368192 157.7080007155746" stroke-miterlimit="10"/></g><g transform="translate(-30,-46) scale(1,1)"><g><path fill="none" stroke="none"/><text fill="#000000" stroke="none" font-family="Arial" font-size="13px" font-style="normal" font-weight="normal" text-decoration="none" x="137.56005859375" y="152.5">Initial page</text></g></g></g></svg>